<svg width="385" height="353" viewBox="0 0 385 353" fill="none" xmlns="http://www.w3.org/2000/svg">
<g clip-path="url(#clip0_8_344)">
<path d="M138.339 281.907L134.64 290.214C137.647 289.735 140.444 292.307 140.506 295.61C140.569 298.913 137.887 302.35 134.88 302.819C135.454 305.384 137.935 306.514 140.088 307.551C142.241 308.587 144.561 310.306 144.401 313.039C144.272 315.233 142.461 317.17 140.537 317.949C138.613 318.728 136.594 318.608 134.645 318.477C137.598 321.571 137.886 327.385 135.293 331.556C132.7 335.727 127.521 337.781 123.643 336.175C126.383 339.588 125.788 345.839 122.388 349.361C118.96 352.912 113.992 353.256 109.65 352.881C98.5908 351.945 88.0533 347.763 79.356 340.859C76.0361 338.217 72.9351 335.11 71.0412 331.057C69.1474 327.004 68.5894 321.873 70.3534 317.261C69.8776 323.038 64.1033 327.601 58.9086 327.857C53.714 328.112 49.1786 325.182 45.3244 321.84C40.1989 317.397 35.4533 311.168 36.1568 303.483C36.5051 299.678 38.1645 296.019 39.792 292.474L42.9472 285.603C44.221 282.829 45.5236 280.008 47.4408 277.68C49.358 275.352 52.0191 273.55 54.6821 273.567C54.0732 270.781 53.4616 267.892 53.9719 264.932C54.4821 261.972 56.436 258.907 59.0932 258.214C62.4751 257.332 65.3411 260.458 68.7418 260.163C72.0144 259.879 74.7189 256.59 77.8968 255.287C79.2052 254.72 80.6503 254.548 82.055 254.791C83.4597 255.035 84.763 255.683 85.8053 256.657C87.8199 258.626 88.6596 261.954 87.9367 265.103C87.3034 267.861 85.6181 270.293 84.5952 272.953C83.5723 275.613 83.4135 279.033 85.3781 280.486C87.7488 282.239 91.3571 279.854 93.2092 276.968C95.0613 274.082 96.1247 270.588 98.4669 268.161C101.231 265.296 105.558 264.625 108.404 266.619C111.25 268.613 112.339 273.079 110.904 276.875C109.731 279.978 107.043 283.118 107.975 286.041C108.96 289.13 113.271 288.739 115.871 286.556C118.471 284.373 120.198 281.084 122.766 278.852C125.374 276.585 128.781 275.592 131.771 276.226C133.288 276.579 134.692 277.308 135.853 278.347C137.014 279.386 137.895 280.702 138.415 282.172" fill="#E6E6E6"/>
<path d="M78.4415 258.561L86.1177 262.133C87.2716 262.703 88.5803 262.88 89.8439 262.636C90.9583 262.372 91.7113 261.69 91.9093 260.763L93.6954 252.408C94.0326 250.832 92.7293 248.968 90.5964 247.975L86.3572 246.003C84.2244 245.01 81.9608 245.215 80.9755 246.49L75.7518 253.245C75.1723 253.994 75.1373 255.011 75.6546 256.034C76.283 257.158 77.2619 258.046 78.4415 258.561Z" fill="#3F3D56"/>
<path d="M316.466 104.148C309.249 84.3678 297.988 66.3145 283.401 51.1446C271.026 38.2793 251.767 38.8138 251.767 38.8138L251.657 38.6771C247.021 32.9526 240.801 28.7265 233.777 26.5289C226.752 24.3312 219.236 24.26 212.171 26.3241C210.334 26.8519 208.922 27.0858 208.25 26.8507C196.003 22.5581 196.578 12.8692 186.012 5.06387C167.51 -8.60278 106.142 7.05209 97.4881 32.2003C90.4746 52.5824 59.168 62.4614 47.4716 78.0521C45.6426 80.4899 43.8482 82.9559 42.0884 85.4502C41.2632 86.609 40.4473 87.7765 39.6406 88.9528C31.3538 100.971 23.9197 113.557 17.393 126.618C13.1131 135.151 9.3934 143.954 6.25754 152.972C-5.94028 188.683 -1.76901 215.29 31.8644 208.716C35.8458 207.936 39.7315 207.238 43.5216 206.622C49.0098 205.725 54.3066 204.988 59.412 204.411C66.2871 203.628 72.8279 203.115 79.0344 202.872C81.1212 202.788 83.1698 202.731 85.18 202.703C114.904 202.29 136.951 207.892 153.748 216.589C156.595 218.06 159.293 219.616 161.842 221.256C165.736 223.749 169.454 226.507 172.969 229.511C177.834 233.691 182.32 238.295 186.375 243.267L186.598 243.54C206.243 267.606 212.709 294.247 226.374 298.938C284.791 318.993 321.738 246.292 325.527 175.174C325.718 171.59 325.824 168.017 325.844 164.453C325.855 162.861 325.848 161.272 325.82 159.688C325.76 155.555 325.578 151.449 325.274 147.392C325.16 145.841 325.028 144.298 324.878 142.763C324.712 141.108 324.532 139.463 324.324 137.829C322.838 125.846 320.238 114.445 316.466 104.148Z" fill="#5CB3FF"/>
<path d="M135.402 143.277C140.068 145.452 140.145 155.195 138.682 158.352L136.031 164.066L119.132 156.203L121.783 150.489C123.249 147.334 130.734 141.109 135.402 143.277Z" fill="#3F3D56"/>
<path d="M180.813 225.316C181.111 225.316 181.404 225.244 181.667 225.107C181.931 224.969 182.158 224.77 182.328 224.526C182.499 224.282 182.608 224 182.646 223.705C182.685 223.41 182.652 223.11 182.55 222.83C182.467 222.601 182.34 222.392 182.176 222.213C182.011 222.034 181.813 221.889 181.593 221.787L94.3236 181.182C94.1036 181.08 93.8656 181.021 93.6233 181.011C93.3809 181.001 93.1388 181.038 92.9109 181.122C92.6831 181.205 92.4738 181.333 92.2952 181.497C92.1165 181.661 91.9719 181.859 91.8697 182.08C91.6638 182.525 91.6426 183.034 91.8108 183.494C91.979 183.955 92.3227 184.33 92.7667 184.537L180.036 225.143C180.279 225.257 180.545 225.316 180.813 225.316Z" fill="#3F3D56"/>
<path d="M112.549 159.848L137.495 171.455L98.364 255.8L73.4184 244.193L112.549 159.848Z" fill="#E6E6E6"/>
<path d="M206.193 53.6706C210.858 55.8458 210.935 65.5888 209.472 68.7458L206.821 74.4599L189.923 66.5972L192.574 60.883C194.039 57.7274 201.524 51.5028 206.193 53.6706Z" fill="#3F3D56"/>
<path d="M101.662 268.257L109.338 271.829C110.492 272.4 111.801 272.576 113.064 272.332C114.179 272.068 114.932 271.386 115.13 270.459L116.916 262.105C117.253 260.529 115.95 258.664 113.817 257.672L109.578 255.699C107.445 254.707 105.181 254.912 104.196 256.186L98.9722 262.941C98.3928 263.69 98.3577 264.707 98.875 265.73C99.5035 266.855 100.482 267.742 101.662 268.257Z" fill="#3F3D56"/>
<path d="M125.263 279.984L132.939 283.555C134.093 284.126 135.401 284.303 136.665 284.058C137.779 283.794 138.532 283.112 138.73 282.186L140.517 273.831C140.854 272.255 139.55 270.39 137.418 269.398L133.178 267.425C131.046 266.433 128.782 266.638 127.797 267.912L122.573 274.668C121.993 275.417 121.958 276.433 122.476 277.456C123.104 278.581 124.083 279.468 125.263 279.984Z" fill="#3F3D56"/>
<path d="M176.684 84.5887L201.629 96.1956L122.53 266.691L97.5849 255.084L176.684 84.5887Z" fill="#E6E6E6"/>
<path d="M150.8 172.478L153.599 166.31L151.988 165.566L149.197 171.715L108.789 261.44L110.399 262.189" fill="#3F3D56"/>
<path d="M119.23 167.352L122.029 161.183L120.417 160.439L117.627 166.588L77.2183 256.313L78.828 257.062" fill="#3F3D56"/>
<path d="M164.909 98.233L198.709 113.96C200.861 110.607 207.348 93.426 205.892 88.3285L206.985 83.4673L183.647 72.6082L180.523 76.4566C175.886 77.8815 166.859 94.0192 164.909 98.233Z" fill="#E6E6E6"/>
<path d="M182.672 72.8162L206.755 84.0221C207.644 84.4357 208.591 84.2837 208.87 83.6825C208.91 83.5958 208.935 83.5029 208.943 83.4078L210.19 70.0912C210.243 69.5209 209.756 68.8748 209.012 68.5285L193.04 61.097C192.296 60.7507 191.489 60.7947 191.088 61.2033L181.729 70.7454C181.251 71.2334 181.511 72.0688 182.31 72.6113C182.425 72.6892 182.546 72.7577 182.672 72.8162Z" fill="#E6E6E6"/>
<path d="M163.782 177.147C164.043 177.148 164.303 177.117 164.556 177.055C164.913 176.981 165.249 176.826 165.537 176.602C165.825 176.378 166.058 176.091 166.218 175.763L180.943 144.025C181.552 142.711 180.734 141.031 179.119 140.28L157.559 130.248C155.944 129.496 154.134 129.954 153.524 131.268L138.8 163.006C138.653 163.34 138.584 163.703 138.599 164.068C138.614 164.433 138.712 164.79 138.886 165.111C139.264 165.839 139.876 166.417 140.624 166.751L162.184 176.783C162.684 177.019 163.229 177.143 163.782 177.147Z" fill="#3F3D56"/>
<path d="M160.834 181.951L185.779 193.558L146.648 277.903L121.703 266.297L160.834 181.951Z" fill="#E6E6E6"/>
<path d="M191.566 74.2074L198.882 77.6112C200.293 78.268 202.198 77.1735 203.126 75.1717C204.055 73.1699 203.662 71.0064 202.251 70.3495L194.935 66.9457C193.523 66.2889 191.619 67.3834 190.69 69.3852C189.762 71.387 190.155 73.5505 191.566 74.2074Z" fill="#3F3D56"/>
<path d="M183.2 165.154C187.865 167.329 187.942 177.072 186.479 180.229L183.828 185.943L166.93 178.08L169.581 172.366C171.046 169.21 178.531 162.986 183.2 165.154Z" fill="#3F3D56"/>
<path d="M260.696 145.706C262.344 146.805 264.03 144.188 262.351 143.138C260.703 142.038 259.017 144.655 260.696 145.706Z" fill="#E6E6E6"/>
<path d="M89.1904 108.107C90.8381 109.207 92.5244 106.59 90.8451 105.539C89.1975 104.44 87.5112 107.057 89.1904 108.107Z" fill="#E6E6E6"/>
<path d="M206.088 138.015C207.735 139.114 209.422 136.498 207.742 135.447C206.095 134.348 204.408 136.965 206.088 138.015Z" fill="#E6E6E6"/>
<path d="M260.696 240.556C262.344 241.655 264.03 239.039 262.351 237.988C260.703 236.889 259.017 239.505 260.696 240.556Z" fill="#E6E6E6"/>
<path d="M176.65 26.5018C178.298 27.6012 179.984 24.9846 178.305 23.934C176.657 22.8346 174.971 25.4513 176.65 26.5018Z" fill="#E6E6E6"/>
<path d="M257.71 76.9178C259.357 78.0172 261.044 75.4005 259.365 74.3499C257.717 73.2506 256.031 75.8673 257.71 76.9178Z" fill="#E6E6E6"/>
<path d="M141.121 62.4645L142.169 62.2342L141.94 61.184L142.638 61.0306L142.868 62.0808L143.917 61.851L144.07 62.5508L143.022 62.7811L143.251 63.8309L142.552 63.9842L142.322 62.9341L141.274 63.1643L141.121 62.4645Z" fill="#E6E6E6"/>
<path d="M311.815 149.957L312.863 149.726L312.634 148.677L313.332 148.523L313.562 149.573L314.611 149.343L314.764 150.043L313.715 150.273L313.945 151.323L313.246 151.476L313.016 150.427L311.968 150.656L311.815 149.957Z" fill="#E6E6E6"/>
<path d="M96.8407 194.587C97.7131 194.992 98.7102 195.033 99.6132 194.703C100.516 194.372 101.251 193.696 101.657 192.824L105.972 183.524C106.376 182.651 106.417 181.653 106.086 180.749C105.756 179.845 105.081 179.11 104.209 178.705C103.338 178.299 102.341 178.257 101.438 178.586C100.535 178.916 99.8003 179.592 99.3943 180.464L95.08 189.763C94.6759 190.637 94.6343 191.635 94.9644 192.54C95.2945 193.444 95.9693 194.18 96.8407 194.587Z" fill="#3F3D56"/>
<path d="M170.221 228.767C171.094 229.172 172.091 229.214 172.994 228.883C173.897 228.552 174.632 227.877 175.038 227.004L179.352 217.705C179.756 216.831 179.797 215.833 179.467 214.929C179.136 214.026 178.461 213.29 177.59 212.885C176.718 212.479 175.722 212.437 174.819 212.767C173.916 213.097 173.181 213.772 172.775 214.644L168.461 223.943C168.056 224.817 168.015 225.816 168.345 226.72C168.675 227.624 169.35 228.361 170.221 228.767Z" fill="#3F3D56"/>
<path d="M103.487 174.269L132.415 187.729C134.257 184.859 139.809 170.155 138.562 165.792L137.95 160.911L120.678 152.425L116.85 155.631C111.457 153.806 103.531 167.188 103.487 174.269Z" fill="#E6E6E6"/>
<path d="M116.917 173.336L124.233 176.739C125.644 177.396 127.792 175.777 129.02 173.13C130.248 170.484 130.098 167.795 128.687 167.138L121.371 163.735C119.96 163.078 117.812 164.697 116.584 167.344C115.356 169.99 115.506 172.679 116.917 173.336Z" fill="#3F3D56"/>
<path d="M178.958 190.85L181.757 184.682L180.146 183.938L177.355 190.086L136.947 279.812L138.556 280.561" fill="#3F3D56"/>
<path d="M151.284 196.146L180.212 209.606C184.48 207.399 191.002 192.96 186.359 187.669L185.748 182.788L168.475 174.302L164.647 177.508C160.679 178.728 152.953 192.539 151.284 196.146Z" fill="#E6E6E6"/>
<path d="M165.31 193.929L172.625 197.333C174.037 197.99 176.051 196.658 177.115 194.365C178.179 192.073 177.896 189.672 176.484 189.015L169.169 185.612C167.757 184.955 165.743 186.286 164.679 188.579C163.615 190.872 163.898 193.272 165.31 193.929Z" fill="#3F3D56"/>
<path d="M311.922 131.528C287.653 131.528 267.979 111.825 267.979 87.5208C267.979 63.2163 287.653 43.5136 311.922 43.5136C336.191 43.5136 355.865 63.2163 355.865 87.5208C355.865 111.825 336.191 131.528 311.922 131.528Z" fill="#FF6584"/>
<path opacity="0.3" d="M131.749 133.356L105.045 55.2503L134.368 132.421C134.513 132.604 134.612 132.82 134.658 133.049C134.703 133.278 134.693 133.515 134.629 133.74C134.565 133.964 134.448 134.171 134.288 134.341C134.128 134.511 133.93 134.641 133.711 134.72C133.491 134.798 133.255 134.823 133.024 134.792C132.793 134.762 132.572 134.676 132.38 134.543C132.188 134.409 132.031 134.232 131.921 134.026C131.812 133.819 131.753 133.59 131.749 133.356Z" fill="#F0F0F0"/>
<path d="M63.6786 86.8C68.9062 88.5399 74.7014 90.249 81.0645 91.9274C113.977 100.605 158.093 107.374 205.285 110.988C252.477 114.602 297.108 114.628 330.955 111.063C347.443 109.326 360.484 106.827 369.716 103.637C379.49 100.259 384.625 96.1888 384.981 91.5396C385.672 82.4819 367.825 74.5099 352.731 69.4172L352.322 70.6318C373.05 77.6254 384.195 85.016 383.704 91.4419C383.079 99.6264 363.804 106.313 330.821 109.788C297.048 113.346 252.5 113.318 205.382 109.711C158.265 106.102 114.23 99.3464 81.3902 90.6877C49.3188 82.2322 31.2822 72.6879 31.9071 64.5033C32.4261 57.708 45.8013 51.8949 69.5692 48.1342L69.3694 46.8682C52.0993 49.6008 31.3597 54.8614 30.6308 64.4056C30.2759 69.0549 34.734 73.8596 43.8815 78.6861C49.0959 81.4373 55.7214 84.1516 63.6786 86.8Z" fill="#3F3D56"/>
<path d="M50.7662 164.851C48.2445 164.851 46.2002 162.804 46.2002 160.278C46.2002 157.753 48.2445 155.706 50.7662 155.706C53.2879 155.706 55.3322 157.753 55.3322 160.278C55.3322 162.804 53.2879 164.851 50.7662 164.851Z" fill="#FF6584"/>
<path d="M21.7553 288.755C19.2336 288.755 17.1894 286.707 17.1894 284.182C17.1894 281.657 19.2336 279.609 21.7553 279.609C24.277 279.609 26.3213 281.657 26.3213 284.182C26.3213 286.707 24.277 288.755 21.7553 288.755Z" fill="#F2F2F2"/>
<path d="M177.476 316.596C172.559 316.596 168.574 312.605 168.574 307.681C168.574 302.757 172.559 298.766 177.476 298.766C182.392 298.766 186.378 302.757 186.378 307.681C186.378 312.605 182.392 316.596 177.476 316.596Z" fill="#F2F2F2"/>
<path d="M245.31 198.604C242.788 198.604 240.744 196.557 240.744 194.031C240.744 191.506 242.788 189.459 245.31 189.459C247.832 189.459 249.876 191.506 249.876 194.031C249.876 196.557 247.832 198.604 245.31 198.604Z" fill="#3F3D56"/>
<path d="M91.8079 204.555L72.1077 209.662L60.0251 233.43L80.4522 234.232L91.8079 204.555Z" fill="#E6E6E6"/>
<path d="M137.279 170.292L126.436 181.156L98.8985 240.782L103.969 245.168L137.279 170.292Z" fill="#CCCCCC"/>
<path d="M160.854 180.141L160.003 195.477L134.011 255.794L127.366 254.937L160.854 180.141Z" fill="#CCCCCC"/>
<path d="M161.563 242.098L172.173 259.488L164.352 284.982L149.115 271.332L161.563 242.098Z" fill="#E6E6E6"/>
<path d="M67.8403 252.783C73.349 252.783 79.3868 252.575 85.9536 252.158C119.919 249.998 163.915 242.488 209.837 231.012C255.759 219.537 298.12 205.465 329.117 191.391C344.217 184.535 355.805 178.045 363.561 172.102C371.773 165.81 375.364 160.325 374.237 155.801C372.041 146.987 352.594 145.059 336.666 144.993L336.661 146.275C358.534 146.365 371.437 149.858 372.995 156.111C374.98 164.075 358.794 176.509 328.589 190.224C297.66 204.267 255.376 218.311 209.527 229.769C163.678 241.226 119.763 248.723 85.8723 250.879C52.7749 252.984 32.653 249.624 30.6686 241.659C29.021 235.047 39.883 225.306 61.2535 214.23L60.6653 213.092C45.1372 221.14 27.1126 232.682 29.4266 241.97C30.554 246.494 36.2977 249.645 46.4983 251.336C52.313 252.3 59.4552 252.783 67.8403 252.783Z" fill="#3F3D56"/>
</g>
<defs>
<clipPath id="clip0_8_344">
<rect width="385" height="353" fill="white" transform="matrix(-1 0 0 1 385 0)"/>
</clipPath>
</defs>
</svg>
