<svg width="390" height="523" viewBox="0 0 390 523" fill="none" xmlns="http://www.w3.org/2000/svg">
<path d="M60.755 391.03C55.4966 388.799 50.3975 386.568 45.7764 384.019C17.8907 369.359 1 350.556 1 330V437.878C1 440.268 1.31869 442.499 1.63739 444.889C5.7804 466.56 28.4076 485.841 62.8265 499.704C76.2116 505.122 91.3496 509.743 107.922 513.408V405.371C90.5528 401.706 74.6182 396.766 60.755 391.03Z" fill="#1B854E"/>
<path d="M60.1528 269.311C54.8943 267.08 49.7952 264.849 45.1742 262.299C17.2885 247.639 0.397766 228.836 0.397766 208.281V316.158C0.397766 318.549 0.716459 320.78 1.03515 323.17C5.17817 344.841 27.8054 364.122 62.2243 377.985C75.6094 383.403 90.7473 388.024 107.319 391.689V283.652C89.9506 279.987 74.0159 275.047 60.1528 269.311Z" fill="#1B854E"/>
<path d="M194.323 0.333344C87.0824 0.333344 0.238434 38.0985 0.238434 84.7871C0.238434 105.661 17.7666 124.783 46.6083 139.602C51.3887 141.993 56.4878 144.383 61.9056 146.614C75.2907 152.031 90.588 156.652 107.16 160.317L144.447 126.695L161.657 111.079L190.658 84.7871L275.43 7.98198C250.731 3.04224 223.324 0.333344 194.323 0.333344Z" fill="#25B86C"/>
<path d="M62.0649 146.614C56.6472 144.383 51.5481 142.152 46.7677 139.602C17.7666 124.783 0.238434 105.661 0.238434 84.7871V194.258C0.238434 196.648 0.557127 198.879 0.875821 201.269C4.85949 222.463 26.69 241.425 59.9934 255.288C66.0486 257.838 72.2631 260.068 78.9557 262.299C87.8791 265.168 97.2806 267.717 107.16 269.789V160.158C90.7473 156.652 75.4501 152.031 62.0649 146.614Z" fill="#1B854E"/>
<path d="M281.007 9.25675C279.095 8.77871 277.342 8.46002 275.43 8.14133L190.658 84.7871L161.657 111.079L144.447 126.695L107.319 160.317C133.452 166.054 163.091 169.241 194.323 169.241C206.114 169.241 217.587 168.763 228.742 167.966C266.188 165.098 299.97 157.449 326.74 146.614C332.158 144.383 337.257 142.152 342.037 139.602C370.879 124.783 388.248 105.661 388.248 84.7871C388.248 51.643 344.587 23.1199 281.007 9.25675V9.25675Z" fill="#2AD17B"/>
<path d="M341.878 139.602C337.097 141.993 331.998 144.383 326.58 146.614C299.81 157.449 266.188 165.098 228.582 167.966C217.428 168.763 205.955 169.241 194.163 169.241C162.931 169.241 133.293 166.054 107.16 160.317V269.948C132.656 275.525 161.497 278.712 191.932 278.871H194.163C237.346 278.871 277.183 272.657 309.371 262.299C316.064 260.068 322.437 257.838 328.333 255.288C361.477 241.425 383.467 222.463 387.451 201.269C387.929 199.039 388.088 196.648 388.088 194.258V84.7871C388.248 105.661 370.879 124.783 341.878 139.602V139.602Z" fill="#1D9155"/>
<path d="M387.61 201.269C383.627 222.463 361.796 241.425 328.493 255.288C322.437 257.838 316.223 260.068 309.53 262.299C277.342 272.657 237.506 278.871 194.323 278.871H192.092C161.657 278.712 132.815 275.525 107.319 269.948C97.4399 267.717 88.0384 265.327 79.115 262.459C72.4225 260.228 66.0486 257.997 60.1528 255.447C26.8493 241.425 5.01882 222.463 1.03515 201.269C0.557113 199.039 0.397766 196.648 0.397766 194.258V208.281C0.397766 228.836 17.2885 247.639 45.1742 262.299C49.7952 264.689 54.8943 267.08 60.1528 269.311C74.0159 275.047 89.9506 279.987 107.319 283.811C131.54 289.07 158.788 292.256 187.471 292.734H194.323C246.429 292.734 293.596 283.811 328.493 269.311C333.751 267.08 338.85 264.849 343.471 262.299C371.357 247.639 388.248 228.836 388.248 208.281V194.258C388.248 196.648 388.088 199.039 387.61 201.269V201.269Z" fill="#0E4528"/>
<path d="M387.61 323.17C383.786 343.407 363.708 361.572 332.954 375.276C330.883 376.232 328.652 377.188 326.421 377.985C321.641 379.897 316.86 381.65 311.602 383.403C291.843 389.936 269.056 394.876 244.358 397.744C237.984 398.541 231.45 399.019 224.758 399.497C214.719 400.134 204.521 400.612 194.163 400.612C179.822 400.612 165.8 399.975 152.414 398.7C136.48 397.107 121.342 394.876 107.16 391.689C90.588 388.024 75.4501 383.403 62.0649 377.985C27.8054 364.122 5.01882 344.841 1.03515 323.17C0.557113 320.939 0.397766 318.549 0.397766 316.158V330.181C0.397766 351.055 17.9259 370.177 46.927 384.996C63.6584 393.442 84.2141 400.612 107.479 405.711C120.386 408.58 133.93 410.651 148.271 412.244C163.091 413.838 178.547 414.635 194.482 414.635C204.68 414.635 214.719 414.316 224.599 413.679C231.132 413.201 237.506 412.723 243.72 411.926C268.738 409.058 291.843 404.118 311.921 397.425C322.915 393.76 333.114 389.617 342.037 384.996C343.471 384.199 344.905 383.403 346.339 382.765C372.632 368.424 388.407 350.099 388.407 330.181V316.318C388.407 317.115 388.248 317.752 388.248 318.549C388.088 320.142 387.929 321.736 387.61 323.17V323.17Z" fill="#0E4528"/>
<path d="M343.471 262.299C338.568 264.823 333.572 267.162 328.493 269.311C293.596 283.811 246.429 292.734 194.323 292.734H187.471C158.629 292.256 131.54 289.07 107.319 283.811V391.848C121.501 394.876 136.639 397.266 152.574 398.859C165.959 400.134 179.981 400.772 194.323 400.772C204.68 400.772 215.038 400.453 224.917 399.656C231.61 399.178 238.143 398.541 244.517 397.903C269.216 395.035 292.002 390.095 311.761 383.562C316.86 381.809 321.8 380.056 326.58 378.144C328.811 377.188 330.883 376.391 333.114 375.435C363.868 361.732 383.945 343.566 387.77 323.329C388.088 321.736 388.248 320.142 388.407 318.549C388.407 317.752 388.566 317.115 388.566 316.318V208.281C388.248 228.836 371.516 247.639 343.471 262.299V262.299Z" fill="#1D9155"/>
<path d="M344.152 384.019C339.249 386.543 334.252 388.881 329.173 391.03C294.276 405.53 247.11 414.454 195.003 414.454H188.151C159.31 413.976 132.221 410.789 108 405.53V513.567C122.182 516.595 137.32 518.985 153.254 520.579C166.64 521.853 180.662 522.491 195.003 522.491C205.361 522.491 215.718 522.172 225.598 521.375C232.29 520.897 238.824 520.26 245.197 519.623C269.896 516.754 292.683 511.815 312.442 505.281C317.541 503.529 322.481 501.776 327.261 499.864C329.492 498.907 331.563 498.111 333.794 497.155C364.548 483.451 384.626 465.285 388.45 445.048C388.769 443.455 388.928 441.861 389.088 440.268C389.088 439.471 389.247 438.834 389.247 438.037V330C388.928 350.556 372.197 369.359 344.152 384.019V384.019Z" fill="#1D9155"/>
</svg>
