<svg width="512" height="512" viewBox="0 0 512 512" fill="none" xmlns="http://www.w3.org/2000/svg">
<path d="M452.37 59.63C444.777 52.0371 434.478 47.7715 423.74 47.7715C413.002 47.7715 402.703 52.0371 395.11 59.63L184 294.74C207.08 299.44 230.12 322.03 233.26 344L452.37 116.89C459.963 109.297 464.228 98.9983 464.228 88.26C464.228 77.5218 459.963 67.2233 452.37 59.63V59.63Z" stroke="#2AD17B" stroke-width="32" stroke-linecap="round" stroke-linejoin="round"/>
<path d="M138 336C108.12 336 84 360.5 84 390.86C84 414.81 63.12 427.43 48 427.43C64.56 449.74 92.82 464 120 464C159.78 464 192 431.27 192 390.86C192 360.5 167.88 336 138 336Z" stroke="#2AD17B" stroke-width="32" stroke-linecap="round" stroke-linejoin="round"/>
</svg>
